<svg width="40" height="25" viewBox="0 0 40 25" fill="none" xmlns="http://www.w3.org/2000/svg">
<path d="M24.7379 18.2886C24.38 18.6044 24.0052 18.937 23.6262 19.2529C22.8935 19.8592 22.1145 20.4277 21.3397 20.9288C21.3397 20.9288 21.3186 20.9499 21.2765 20.9709C21.1502 21.0551 21.0239 21.1394 20.8765 21.2236C20.3922 21.5394 19.5332 22.0405 18.4847 22.5458C16.1982 23.6364 12.9684 24.706 10.4123 23.8259C8.23108 23.0932 6.57619 21.2236 7.26678 18.057C7.37205 18.1201 7.47732 18.1833 7.5826 18.2254C9.7428 19.0002 14.9222 16.6716 19.9964 12.4985L24.7379 18.2886Z" fill="white"/>
<path d="M10.9893 24.7649C7.15312 25.1859 3.81806 24.2006 1.82629 21.7667C-2.38884 16.6251 0.941999 6.96105 9.25016 0.143555L14.1769 6.16097C11.4735 8.36329 9.29227 10.713 7.86476 12.7469C7.82266 12.81 7.78055 12.8732 7.75949 12.9364C7.13206 13.8585 6.66886 14.7176 6.39515 15.4755C6.39515 15.4966 6.3741 15.4966 6.3741 15.4966C6.3741 15.5177 6.3741 15.5387 6.35304 15.5387C5.15714 18.4106 5.11503 21.034 6.52148 22.752C7.59105 24.1795 9.22489 24.7017 10.9893 24.7649Z" fill="white"/>
<path d="M15.2588 6.71245C15.6167 6.39663 15.9915 6.06396 16.3705 5.74814C17.1032 5.14177 17.8822 4.57329 18.657 4.07219C18.657 4.07219 18.6781 4.05114 18.7202 4.03008C18.8465 3.94587 18.9728 3.86165 19.1202 3.77743C19.6045 3.46161 20.4635 2.96051 21.512 2.4552C23.7986 1.36457 27.0284 0.294991 29.5844 1.17508C31.7656 1.90778 33.4205 3.77743 32.73 6.94405C32.6247 6.88088 32.5194 6.81772 32.4141 6.77561C30.2539 6.0008 25.0745 8.32944 20.0003 12.5025L15.2588 6.71245Z" fill="white"/>
<path d="M29.0113 0.236018C32.8475 -0.185075 36.1825 0.800282 38.1743 3.2342C42.3894 8.37153 39.0544 18.0398 30.7504 24.8573L25.8236 18.8399C28.527 16.6376 30.7083 14.2879 32.1358 12.254C32.1779 12.1908 32.22 12.1277 32.2411 12.0645C32.8685 11.1423 33.3317 10.2833 33.6054 9.52533C33.6054 9.50427 33.6265 9.50427 33.6265 9.50427C33.6265 9.48322 33.6265 9.46216 33.6475 9.46216C34.8434 6.59031 34.8855 3.9669 33.4791 2.24884C32.4095 0.821337 30.7757 0.299181 29.0113 0.236018Z" fill="white"/>
</svg>
