<svg width="103" height="64" viewBox="0 0 103 64" fill="none" xmlns="http://www.w3.org/2000/svg">
<path d="M63.958 47.0062C63.0424 47.8141 62.0836 48.6651 61.1142 49.473C59.2399 51.0241 57.247 52.4783 55.265 53.7602C55.265 53.7602 55.2111 53.8141 55.1034 53.8679C54.7803 54.0834 54.4571 54.2988 54.0801 54.5142C52.8413 55.3221 50.6438 56.604 47.9616 57.8966C42.1125 60.6866 33.8504 63.4226 27.3118 61.1713C21.732 59.297 17.4986 54.5142 19.2652 46.4137C19.5345 46.5753 19.8038 46.7369 20.0731 46.8446C25.5991 48.8266 38.8486 42.8698 51.8288 32.1948L63.958 47.0062Z" fill="url(#paint0_linear_1_30)"/>
<path d="M28.7877 63.573C18.9745 64.6502 10.4431 62.1296 5.34796 55.9034C-5.43475 42.7508 3.08585 18.0292 24.3389 0.589447L36.9421 15.9826C30.0265 21.6163 24.4466 27.627 20.7949 32.8299C20.6872 32.9914 20.5795 33.153 20.5256 33.3146C18.9206 35.6737 17.7357 37.8711 17.0355 39.8101C17.0355 39.8639 16.9817 39.8639 16.9817 39.8639C16.9817 39.9178 16.9817 39.9717 16.9278 39.9717C13.8686 47.3181 13.7608 54.029 17.3587 58.424C20.0948 62.0757 24.2743 63.4114 28.7877 63.573Z" fill="url(#paint1_linear_1_30)"/>
<path d="M39.7105 17.394C40.6261 16.5861 41.5848 15.7351 42.5543 14.9272C44.4286 13.3761 46.4214 11.9219 48.4034 10.64C48.4034 10.64 48.4573 10.5861 48.565 10.5323C48.8882 10.3168 49.2113 10.1014 49.5883 9.88597C50.8271 9.07807 53.0246 7.79621 55.7068 6.50358C61.556 3.71364 69.818 0.97757 76.3566 3.22891C81.9365 5.10322 86.1699 9.88597 84.4033 17.9865C84.134 17.8249 83.8647 17.6633 83.5954 17.5556C78.0694 15.5736 64.8199 21.5304 51.8397 32.2054L39.7105 17.394Z" fill="url(#paint2_linear_1_30)"/>
<path d="M74.891 0.82673C84.7043 -0.250464 93.2356 2.27017 98.3308 8.49635C109.113 21.6381 100.582 46.3705 79.3398 63.8103L66.7367 48.4172C73.6523 42.7835 79.2321 36.7727 82.8838 31.5699C82.9915 31.4083 83.0992 31.2467 83.1531 31.0851C84.7581 28.7261 85.943 26.5286 86.6432 24.5896C86.6432 24.5358 86.6971 24.5358 86.6971 24.5358C86.6971 24.4819 86.6971 24.4281 86.7509 24.4281C89.8102 17.0816 89.9179 10.3707 86.3201 5.97572C83.584 2.32403 79.4045 0.988309 74.891 0.82673Z" fill="url(#paint3_linear_1_30)"/>
<defs>
<linearGradient id="paint0_linear_1_30" x1="59.94" y1="42.4497" x2="20.5147" y2="54.0187" gradientUnits="userSpaceOnUse">
<stop stop-color="#AC8EFF"/>
<stop offset="1" stop-color="#6027FF"/>
</linearGradient>
<linearGradient id="paint1_linear_1_30" x1="23.9296" y1="68.6358" x2="15.0966" y2="1.65587" gradientUnits="userSpaceOnUse">
<stop stop-color="#C7B3FF"/>
<stop offset="1" stop-color="#6C4FFF"/>
</linearGradient>
<linearGradient id="paint2_linear_1_30" x1="43.7284" y1="21.9505" x2="83.1537" y2="10.3815" gradientUnits="userSpaceOnUse">
<stop stop-color="#66C7FF"/>
<stop offset="1" stop-color="#002FE7"/>
</linearGradient>
<linearGradient id="paint3_linear_1_30" x1="79.7492" y1="-4.23608" x2="88.5714" y2="62.7439" gradientUnits="userSpaceOnUse">
<stop stop-color="#7AF6FF"/>
<stop offset="1" stop-color="#0089FF"/>
</linearGradient>
</defs>
</svg>
