<svg width="343" height="270" viewBox="0 0 343 270" fill="none" xmlns="http://www.w3.org/2000/svg">
<rect width="343" height="270" fill="white"/>
<path opacity="0.998" d="M253.163 110.253H241.398V116.362H253.163V110.253Z" fill="#007EFF" fill-opacity="0.27"/>
<path opacity="0.998" d="M244.565 65.6832H232.801V71.7918H244.565V65.6832Z" fill="#007EFF" fill-opacity="0.27"/>
<path opacity="0.998" d="M252.936 72.6968H241.172V78.8054H252.936V72.6968Z" fill="#007EFF" fill-opacity="0.27"/>
<path opacity="0.998" d="M230.312 66.1357H218.547V72.2443H230.312V66.1357Z" fill="#007EFF" fill-opacity="0.27"/>
<path opacity="0.998" d="M80.7647 131.746H69V137.855H80.7647V131.746Z" fill="#007EFF" fill-opacity="0.27"/>
<path opacity="0.998" d="M253.841 80.1628H242.077V86.2714H253.841V80.1628Z" fill="#007EFF" fill-opacity="0.27"/>
<path opacity="0.998" d="M238.683 73.1493H226.918V79.2579H238.683V73.1493Z" fill="#007EFF" fill-opacity="0.27"/>
<path opacity="0.998" d="M267.416 126.769H255.651V132.878H267.416V126.769Z" fill="#007EFF" fill-opacity="0.27"/>
<path opacity="0.998" d="M253.163 127.222H241.398V133.33H253.163V127.222Z" fill="#007EFF" fill-opacity="0.27"/>
<path opacity="0.998" d="M80.7647 110.253H69V116.362H80.7647V110.253Z" fill="#007EFF" fill-opacity="0.27"/>
<path opacity="0.998" d="M89.1357 117.267H77.371V123.375H89.1357V117.267Z" fill="#007EFF" fill-opacity="0.27"/>
<path opacity="0.998" d="M152.71 46H140.946V52.1086H152.71V46Z" fill="#007EFF" fill-opacity="0.27"/>
<path opacity="0.998" d="M245.47 158.67H233.706V164.778H245.47V158.67Z" fill="#007EFF" fill-opacity="0.27"/>
<path opacity="0.998" d="M90.0407 124.733H78.276V130.842H90.0407V124.733Z" fill="#007EFF" fill-opacity="0.27"/>
<path opacity="0.998" d="M161.081 53.0136H149.317V59.1222H161.081V53.0136Z" fill="#007EFF" fill-opacity="0.27"/>
<path opacity="0.998" d="M118.095 94.4162H106.33V100.525H118.095V94.4162Z" fill="#007EFF" fill-opacity="0.27"/>
<path opacity="0.998" d="M126.466 101.43H114.701V107.538H126.466V101.43Z" fill="#007EFF" fill-opacity="0.27"/>
<path opacity="0.998" d="M148.864 97.5836H137.099V103.692H148.864V97.5836Z" fill="#007EFF" fill-opacity="0.27"/>
<path opacity="0.998" d="M127.371 108.896H115.606V115.004H127.371V108.896Z" fill="#007EFF" fill-opacity="0.27"/>
<path opacity="0.998" d="M261.307 158.67H249.543V164.778H261.307V158.67Z" fill="#007EFF" fill-opacity="0.27"/>
<path d="M182.819 59.0249C187.353 59.0249 191.702 60.8262 194.908 64.0326C198.115 67.2389 199.916 71.5877 199.916 76.1222V83.4163H165.722V76.1222C165.722 71.5877 167.523 67.2389 170.729 64.0326C173.936 60.8262 178.284 59.0249 182.819 59.0249Z" fill="#CACACA"/>
<path d="M182.939 99.199C193.702 99.199 202.427 93.2035 202.427 85.8076C202.427 78.4118 193.702 72.4163 182.939 72.4163C172.175 72.4163 163.45 78.4118 163.45 85.8076C163.45 93.2035 172.175 99.199 182.939 99.199Z" fill="#CACACA"/>
<path d="M170.446 98.7805C170.446 98.7805 174.518 120.063 170.446 125.803C166.373 131.543 182.889 133.814 182.889 133.814L199.984 127.597L202.375 112.292C202.375 112.292 191.968 106.432 194.124 94.595L170.446 98.7805Z" fill="#FFB9B9"/>
<path d="M220.903 170.522C220.903 170.522 221.979 175.185 216.12 176.022C212.66 176.531 209.141 176.489 205.694 175.898L204.403 164.185H218.034L220.903 170.522Z" fill="#FFB9B9"/>
<path d="M117.432 164.554C117.432 164.554 114.844 175.072 120.703 176.022C126.563 176.973 148.079 176.979 148.079 176.979V164.536L138.337 166.618L129.192 157.848L117.432 164.554Z" fill="#FFB9B9"/>
<path opacity="0.1" d="M171.704 105.656L148.805 110.498C148.805 110.498 140.077 110.857 134.457 122.455C128.837 134.052 116.64 167.174 116.64 167.174C116.64 167.174 127.047 156.651 139.24 167.891L147.371 153.185L145.577 176.502H208.581V165.5C208.581 165.5 221.733 172.554 220.778 176.5C220.778 176.5 232.034 147.5 229.602 134.321C228.869 130.247 228.42 126.127 228.258 121.991C228.114 118.584 226.92 115.306 224.838 112.605C222.757 109.904 219.891 107.914 216.633 106.907C215.448 106.543 214.145 106.201 212.697 105.896C199.185 103.027 195.728 105.896 195.728 105.896C195.728 105.896 193.111 114.412 193.158 118.271C193.217 123.233 186.104 126.523 186.104 126.523C186.104 126.523 175.581 124.011 175.104 121.98C174.627 119.948 170.862 108.047 171.704 105.656Z" fill="black"/>
<path d="M171.703 105.179L148.805 110.02C148.805 110.02 140.077 110.38 134.457 121.977C128.837 133.575 116.638 166.701 116.638 166.701C116.638 166.701 127.045 156.179 139.237 167.418L147.369 152.713L145.574 176.022H208.581V165.022C208.581 165.022 221.733 172.077 220.778 176.022C220.778 176.022 232.034 147.022 229.601 133.844C228.869 129.77 228.42 125.65 228.258 121.513C228.114 118.107 226.92 114.828 224.838 112.128C222.757 109.427 219.891 107.437 216.633 106.43C215.448 106.066 214.144 105.724 212.697 105.418C199.185 102.55 195.728 105.418 195.728 105.418C195.728 105.418 193.111 113.934 193.158 117.794C193.217 122.756 186.104 126.045 186.104 126.045C186.104 126.045 175.581 123.534 175.104 121.502C174.626 119.47 170.862 107.57 171.703 105.179Z" fill="#1F5DEE"/>
<path opacity="0.1" d="M195.102 104.163C194.14 101.44 193.924 98.5088 194.477 95.6742L170.799 99.8574C170.799 99.8574 171.14 101.647 171.527 104.328C173.057 105.916 174.894 107.175 176.926 108.031C178.958 108.886 181.143 109.319 183.348 109.304C185.552 109.288 187.731 108.825 189.751 107.941C191.771 107.057 193.59 105.772 195.097 104.163H195.102Z" fill="black"/>
<path d="M199.14 91.966C199.166 94.1013 198.771 96.2208 197.978 98.2035C197.185 100.186 196.008 101.993 194.517 103.521C193.025 105.049 191.247 106.269 189.284 107.11C187.321 107.951 185.212 108.397 183.077 108.423C180.942 108.449 178.822 108.054 176.839 107.261C174.857 106.467 173.05 105.291 171.522 103.8C168.435 100.787 166.672 96.6721 166.62 92.3597C166.622 92.2284 166.622 92.0972 166.622 91.966C166.621 89.5992 167.137 87.2607 168.133 85.1139C169.129 82.9671 170.582 81.0637 172.391 79.5368C174.199 78.0099 176.319 76.8962 178.602 76.2736C180.886 75.6509 183.278 75.5344 185.611 75.9321C189.213 76.5454 192.503 78.3549 194.95 81.0684C197.397 83.7818 198.858 87.2408 199.097 90.8868C199.126 91.2443 199.14 91.604 199.14 91.966Z" fill="#FFB9B9"/>
<path d="M177.215 76.7239L177.238 76.7104C174.12 77.862 171.43 79.9421 169.532 82.67C167.633 85.3979 166.617 88.6424 166.62 91.966C166.62 92.0972 166.62 92.2284 166.62 92.3597C167.125 92.346 167.623 92.2265 168.079 92.009C172.043 90.1583 174.414 84.4977 175.355 80.5497C175.695 79.1447 176.014 77.5452 177.215 76.7239Z" fill="#090814"/>
<path d="M189.66 77.181C188.373 76.5897 187.014 76.1705 185.617 75.9344C186.763 76.1979 187.786 76.8404 188.52 77.7579C188.88 78.2475 189.179 78.7793 189.409 79.3416C187.245 78.3954 184.901 77.9306 182.54 77.9794C180.179 78.0283 177.856 78.5895 175.733 79.6244C176.753 81.862 179.918 83.0814 182.031 83.8981C184.345 84.7911 186.683 85.6078 189.045 86.3484L186.954 84.6515L191.676 85.4027C191.727 84.463 191.615 83.5216 191.346 82.6199C192.251 83.3484 193.45 83.5927 194.432 84.2036C196.271 85.3642 197.038 87.5972 198.04 89.5316C198.305 90.0429 198.617 90.5656 199.095 90.8891C198.902 87.9665 197.923 85.1503 196.263 82.7375C194.602 80.3248 192.321 78.4051 189.66 77.181Z" fill="#090814"/>
<path d="M164.765 88.9162C164.765 88.9162 181.507 68.1018 200.875 88.9162L199.201 84.2534C199.201 84.2534 190.113 70.9819 183.658 73.8461C177.204 76.7104 170.864 78.7488 170.864 78.7488L164.765 88.9162Z" fill="#CACACA"/>
<path opacity="0.1" d="M151.013 133.756C151.013 133.756 147.428 143.321 152.448 151.93C157.468 160.538 148.025 164.127 148.025 164.127" fill="black"/>
<path opacity="0.1" d="M209.124 125.147C209.124 125.147 215.341 133.038 211.276 140.093C207.21 147.147 207.45 164.127 207.45 164.127" fill="black"/>
<path d="M145.513 171.181H214.624C216.146 171.181 217.606 171.786 218.683 172.862C219.759 173.938 220.364 175.398 220.364 176.921H139.776C139.776 175.399 140.38 173.939 141.456 172.863C142.532 171.786 143.992 171.181 145.513 171.181Z" fill="#090814"/>
<path d="M152.545 131.722H207.595C208.753 131.722 209.901 131.95 210.971 132.393C212.042 132.837 213.015 133.487 213.834 134.306C214.653 135.125 215.303 136.098 215.747 137.169C216.19 138.239 216.418 139.386 216.418 140.545V172.495H143.722V140.545C143.722 138.205 144.651 135.961 146.306 134.306C147.961 132.651 150.205 131.722 152.545 131.722Z" fill="#090814"/>
<path d="M180.009 158.208C182.387 158.208 184.314 156.28 184.314 153.903C184.314 151.525 182.387 149.597 180.009 149.597C177.631 149.597 175.703 151.525 175.703 153.903C175.703 156.28 177.631 158.208 180.009 158.208Z" fill="white"/>
<path opacity="0.1" d="M165.722 79.5294C165.722 79.5294 182.174 63.0859 199.918 79.2285" stroke="black" stroke-miterlimit="10"/>
<path d="M204.075 78.4819H202.423V87.8461H204.075V78.4819Z" fill="#CACACA"/>
<path d="M200.219 84.5407C201.729 84.5407 203.177 85.1404 204.244 86.2079C205.312 87.2754 205.912 88.7233 205.912 90.233V90.5995C205.912 92.1092 205.312 93.5571 204.244 94.6246C203.177 95.6921 201.729 96.2918 200.219 96.2918V84.5407Z" fill="#1F5DEE"/>
<path d="M201.688 85.2759C201.688 84.5662 201.112 83.9909 200.403 83.9909C199.693 83.9909 199.118 84.5662 199.118 85.2759V95.5587C199.118 96.2685 199.693 96.8438 200.403 96.8438C201.112 96.8438 201.688 96.2685 201.688 95.5587V85.2759Z" fill="#090814"/>
<path d="M161.396 88.0294H163.047V78.6651H161.396V88.0294Z" fill="#CACACA"/>
<path d="M165.251 96.4751C163.741 96.4751 162.293 95.8753 161.226 94.8078C160.158 93.7403 159.559 92.2925 159.559 90.7828V90.4163C159.559 89.6687 159.706 88.9285 159.992 88.2379C160.278 87.5473 160.697 86.9198 161.226 86.3912C161.754 85.8626 162.382 85.4433 163.073 85.1573C163.763 84.8712 164.503 84.724 165.251 84.724V96.4751Z" fill="#1F5DEE"/>
<path d="M163.783 95.7398C163.783 96.4495 164.358 97.0248 165.068 97.0248C165.777 97.0248 166.353 96.4495 166.353 95.7398V85.457C166.353 84.7472 165.777 84.1719 165.068 84.1719C164.358 84.1719 163.783 84.7472 163.783 85.457V95.7398Z" fill="#090814"/>
<path d="M202.228 68.4729C199.991 63.8213 195.118 58.1968 184.613 57.7466V57.733H184.486L180.765 57.9095V57.9276C170.33 58.4073 165.48 64.0113 163.249 68.6471C161.763 71.7897 160.974 75.2164 160.937 78.6923L162.222 78.6606L163.507 78.6312C163.562 75.5366 164.274 72.4891 165.595 69.69C168.428 63.871 173.64 60.7783 181.086 60.491L184.378 60.3077C191.828 60.5928 197.043 63.6901 199.873 69.5068C201.196 72.3068 201.91 75.356 201.966 78.4525L203.251 78.4819L204.536 78.5136C204.499 75.0395 203.712 71.6144 202.228 68.4729Z" fill="#1F5DEE"/>
<path d="M260.936 176.995H85.6628V224.054H260.936V176.995Z" fill="#D6D6E3"/>
<path opacity="0.1" d="M260.936 180.163H85.6628V185.14H260.936V180.163Z" fill="black"/>
<path d="M272.69 176.317H73.905V182.425H272.69V176.317Z" fill="#D6D6E3"/>
</svg>
