<svg width="343" height="270" viewBox="0 0 343 270" fill="none" xmlns="http://www.w3.org/2000/svg">
<rect width="343" height="270" fill="white"/>
<path d="M242.38 129.136C242.065 129.395 241.749 129.643 241.426 129.887H161.769C161.175 129.643 160.585 129.392 159.996 129.136C151.587 125.476 143.76 120.603 136.764 114.672C132.119 110.737 127.846 106.674 124.748 102.866C120.427 97.553 116.446 91.7628 114.595 85.1654C112.748 78.5679 113.3 71.0054 117.426 65.5344C118.704 63.8515 120.275 62.4128 122.064 61.2876C122.36 61.0998 122.661 60.9196 122.969 60.7506C127.918 57.972 134.162 57.2961 139.735 58.7342C147.714 60.7957 154.345 66.552 159.076 73.3034C163.808 80.0511 166.879 87.8013 169.906 95.4652C172.977 81.7859 182.278 69.5335 194.842 63.304C207.403 57.0745 223.008 57.1496 235.302 63.8973C239.17 66.0332 242.664 68.7854 245.647 72.0455C245.943 72.3647 246.233 72.6914 246.518 73.0218C252.515 79.9647 256.266 88.8565 256.574 98.0261C256.968 109.839 251.493 121.705 242.38 129.136Z" fill="#BADCFF"/>
<path d="M164.952 129.887H163.826C163.811 129.635 163.792 129.388 163.77 129.136C163.376 124.224 162.552 119.357 161.306 114.589C158.449 103.705 153.569 93.4558 146.921 84.3768C140.292 75.2688 131.935 67.5546 122.326 61.6743C122.256 61.6341 122.196 61.5783 122.15 61.5113C122.105 61.4443 122.075 61.3678 122.063 61.2876C122.045 61.1827 122.057 61.0748 122.097 60.9764C122.138 60.878 122.206 60.7931 122.293 60.7317C122.38 60.6703 122.482 60.6349 122.589 60.6296C122.695 60.6243 122.801 60.6494 122.893 60.7018C122.919 60.7167 122.944 60.733 122.968 60.7506C128.412 64.0687 133.465 67.9885 138.033 72.436C146.204 80.4064 152.792 89.8511 157.45 100.272C161.56 109.398 164.077 119.16 164.892 129.136C164.915 129.387 164.934 129.639 164.952 129.887Z" fill="white"/>
<path d="M246.518 73.0218C246.51 73.0261 246.501 73.0286 246.492 73.0293C245.669 73.1795 244.843 73.3372 244.024 73.5062C237.305 74.8862 230.727 76.8836 224.375 79.4729C218.039 82.0585 211.945 85.1999 206.163 88.8602C200.374 92.5187 194.915 96.6749 189.848 101.282C184.781 105.882 180.133 110.923 175.958 116.347C172.838 120.41 170.002 124.683 167.468 129.136C167.326 129.384 167.187 129.635 167.048 129.887H165.76C165.895 129.635 166.034 129.384 166.177 129.136C169.242 123.68 172.756 118.489 176.683 113.617C181.026 108.225 185.84 103.23 191.068 98.6907C196.263 94.1775 201.839 90.1221 207.733 86.5697C213.651 83.003 219.874 79.9672 226.327 77.4977C232.59 75.1035 239.056 73.2787 245.647 72.0455C245.831 72.0117 246.011 71.978 246.195 71.9442C246.897 71.8165 247.197 72.8754 246.518 73.0218Z" fill="white"/>
<path d="M261.617 129.136H80.6276C78.9353 129.138 77.3131 129.812 76.1165 131.008C74.9198 132.205 74.2465 133.827 74.2441 135.519V205.362C74.2465 207.054 74.9198 208.676 76.1165 209.873C77.3131 211.069 78.9353 211.743 80.6276 211.745H261.617C263.309 211.743 264.931 211.069 266.128 209.873C267.324 208.676 267.998 207.054 268 205.362V135.519C267.998 133.827 267.324 132.205 266.128 131.008C264.931 129.812 263.309 129.138 261.617 129.136ZM267.249 205.362C267.247 206.855 266.653 208.286 265.597 209.342C264.541 210.398 263.11 210.992 261.617 210.994H80.6276C79.1343 210.992 77.7027 210.398 76.6468 209.342C75.5909 208.286 74.9969 206.855 74.9951 205.362V135.519C74.9969 134.026 75.5909 132.595 76.6468 131.539C77.7027 130.483 79.1343 129.889 80.6276 129.887H261.617C263.11 129.889 264.541 130.483 265.597 131.539C266.653 132.595 267.247 134.026 267.249 135.519V205.362Z" fill="#3F3D56"/>
<path d="M113.489 192.219C109.181 192.219 104.97 190.942 101.389 188.549C97.8075 186.156 95.016 182.754 93.3677 178.775C91.7193 174.795 91.288 170.416 92.1283 166.192C92.9687 161.967 95.0429 158.086 98.0887 155.041C101.135 151.995 105.015 149.921 109.24 149.08C113.464 148.24 117.843 148.671 121.823 150.32C125.803 151.968 129.204 154.759 131.597 158.341C133.99 161.922 135.267 166.133 135.267 170.44C135.261 176.215 132.964 181.75 128.881 185.833C124.798 189.916 119.263 192.213 113.489 192.219ZM113.489 149.413C109.33 149.413 105.264 150.646 101.806 152.957C98.3482 155.267 95.653 158.551 94.0615 162.394C92.47 166.236 92.0535 170.464 92.8649 174.543C93.6762 178.622 95.679 182.369 98.6197 185.309C101.561 188.25 105.307 190.253 109.386 191.064C113.465 191.876 117.693 191.459 121.536 189.868C125.378 188.276 128.662 185.581 130.973 182.123C133.283 178.665 134.516 174.599 134.516 170.44C134.51 164.866 132.293 159.521 128.351 155.579C124.408 151.636 119.064 149.419 113.489 149.413Z" fill="#3F3D56"/>
<path d="M245.465 156.547H158.726C157.513 156.548 156.348 157.018 155.474 157.858C154.601 158.699 154.087 159.845 154.039 161.057C154.033 161.118 154.031 161.179 154.032 161.241C154.034 162.485 154.529 163.678 155.408 164.558C156.288 165.438 157.481 165.933 158.726 165.935H245.465C246.71 165.935 247.904 165.44 248.784 164.56C249.664 163.68 250.159 162.486 250.159 161.241C250.159 159.996 249.664 158.802 248.784 157.922C247.904 157.042 246.71 156.547 245.465 156.547Z" fill="#1F5DEE"/>
<path d="M245.465 174.946H158.726C157.513 174.947 156.348 175.417 155.474 176.258C154.601 177.098 154.087 178.245 154.039 179.456C154.033 179.517 154.031 179.579 154.032 179.64C154.034 180.884 154.529 182.077 155.408 182.957C156.288 183.837 157.481 184.332 158.726 184.334H245.465C246.71 184.334 247.904 183.839 248.784 182.959C249.664 182.079 250.159 180.885 250.159 179.64C250.159 178.395 249.664 177.201 248.784 176.321C247.904 175.441 246.71 174.946 245.465 174.946Z" fill="#1F5DEE"/>
<path d="M111.059 179.956C110.451 179.957 109.86 179.761 109.374 179.396L109.343 179.374L102.996 174.514C102.702 174.289 102.455 174.008 102.27 173.687C102.085 173.367 101.964 173.013 101.916 172.645C101.867 172.278 101.891 171.905 101.987 171.547C102.082 171.19 102.247 170.854 102.473 170.56C102.698 170.266 102.979 170.02 103.299 169.834C103.62 169.649 103.974 169.528 104.341 169.48C104.708 169.431 105.081 169.455 105.439 169.551C105.797 169.647 106.132 169.812 106.426 170.037L110.538 173.189L120.253 160.519C120.479 160.225 120.76 159.978 121.08 159.793C121.401 159.608 121.755 159.487 122.122 159.439C122.489 159.39 122.862 159.415 123.22 159.51C123.578 159.606 123.913 159.771 124.207 159.997L124.147 160.079L124.209 159.998C124.801 160.454 125.189 161.126 125.287 161.867C125.385 162.608 125.185 163.358 124.731 163.952L113.303 178.856C113.038 179.199 112.698 179.477 112.309 179.668C111.92 179.859 111.492 179.957 111.059 179.956Z" fill="#1F5DEE"/>
<path d="M224.118 112.22C216.274 111.141 208.308 111.32 200.52 112.752C192.755 114.171 185.259 116.792 178.301 120.52C174.391 122.621 170.679 125.073 167.213 127.846C166.646 128.298 167.448 129.091 168.009 128.642C174.092 123.804 180.911 119.971 188.206 117.289C195.444 114.612 203.051 113.069 210.76 112.714C215.122 112.513 219.493 112.711 223.819 113.306C223.962 113.34 224.114 113.319 224.243 113.246C224.371 113.173 224.467 113.054 224.511 112.913C224.55 112.768 224.531 112.615 224.457 112.485C224.383 112.356 224.262 112.26 224.118 112.22Z" fill="white"/>
</svg>
