<svg width="343" height="270" viewBox="0 0 343 270" fill="none" xmlns="http://www.w3.org/2000/svg">
<rect width="343" height="270" fill="white"/>
<path d="M315 92.0851H209.847V147.074H315V92.0851Z" fill="white"/>
<path d="M314.936 92H209.783V98.3748H314.936V92Z" fill="#1F5DEE"/>
<path d="M313.032 100.591H212.065V144.274H313.032V100.591Z" fill="#007EFF" fill-opacity="0.27"/>
<path d="M219.748 96.2257C220.332 96.2257 220.806 95.7536 220.806 95.1712C220.806 94.5888 220.332 94.1166 219.748 94.1166C219.163 94.1166 218.689 94.5888 218.689 95.1712C218.689 95.7536 219.163 96.2257 219.748 96.2257Z" fill="#007EFF" fill-opacity="0.27"/>
<path d="M223.766 96.2257C224.351 96.2257 224.825 95.7536 224.825 95.1712C224.825 94.5888 224.351 94.1166 223.766 94.1166C223.181 94.1166 222.707 94.5888 222.707 95.1712C222.707 95.7536 223.181 96.2257 223.766 96.2257Z" fill="#007EFF" fill-opacity="0.27"/>
<path d="M215.718 96.2257C216.303 96.2257 216.777 95.7536 216.777 95.1712C216.777 94.5888 216.303 94.1166 215.718 94.1166C215.133 94.1166 214.659 94.5888 214.659 95.1712C214.659 95.7536 215.133 96.2257 215.718 96.2257Z" fill="#007EFF" fill-opacity="0.27"/>
<path d="M299.255 113.556H230.496V116.609H299.255V113.556Z" fill="white"/>
<path d="M255.012 121.186H230.496V124.239H255.012V121.186Z" fill="white"/>
<path d="M279.336 128.817H230.496V131.869H279.336V128.817Z" fill="white"/>
<path d="M138.806 97.7391H27.0681V156.172H138.806V97.7391Z" fill="white"/>
<path d="M138.738 97.6489H27V104.423H138.738V97.6489Z" fill="#1F5DEE"/>
<path d="M136.715 107.169H29.5951V153.092H136.715V107.169Z" fill="#007EFF" fill-opacity="0.27"/>
<path d="M37.5883 102.139C38.2097 102.139 38.7135 101.638 38.7135 101.019C38.7135 100.4 38.2097 99.898 37.5883 99.898C36.9669 99.898 36.4631 100.4 36.4631 101.019C36.4631 101.638 36.9669 102.139 37.5883 102.139Z" fill="#007EFF" fill-opacity="0.27"/>
<path d="M41.8593 102.139C42.4807 102.139 42.9845 101.638 42.9845 101.019C42.9845 100.4 42.4807 99.898 41.8593 99.898C41.2379 99.898 40.7341 100.4 40.7341 101.019C40.7341 101.638 41.2379 102.139 41.8593 102.139Z" fill="#007EFF" fill-opacity="0.27"/>
<path d="M33.3066 102.139C33.928 102.139 34.4318 101.638 34.4318 101.019C34.4318 100.4 33.928 99.898 33.3066 99.898C32.6852 99.898 32.1814 100.4 32.1814 101.019C32.1814 101.638 32.6852 102.139 33.3066 102.139Z" fill="#007EFF" fill-opacity="0.27"/>
<path d="M115.213 120.627H53.6158V123.361H115.213V120.627Z" fill="white"/>
<path d="M75.5782 127.462H53.6158V130.196H75.5782V127.462Z" fill="white"/>
<path d="M97.369 134.298H53.6158V137.032H97.369V134.298Z" fill="white"/>
<path d="M232.982 117.027H108.253V124.588H232.982V117.027Z" fill="#1FA5FF"/>
<path d="M230.058 126.91H111.13V178.713H230.058V126.91Z" fill="#007EFF" fill-opacity="0.27"/>
<path d="M120.073 122.039C120.767 122.039 121.329 121.479 121.329 120.788C121.329 120.097 120.767 119.537 120.073 119.537C119.38 119.537 118.817 120.097 118.817 120.788C118.817 121.479 119.38 122.039 120.073 122.039Z" fill="#007EFF" fill-opacity="0.27"/>
<path d="M124.84 122.039C125.534 122.039 126.096 121.479 126.096 120.788C126.096 120.097 125.534 119.537 124.84 119.537C124.146 119.537 123.584 120.097 123.584 120.788C123.584 121.479 124.146 122.039 124.84 122.039Z" fill="#007EFF" fill-opacity="0.27"/>
<path d="M115.294 122.039C115.987 122.039 116.549 121.479 116.549 120.788C116.549 120.097 115.987 119.537 115.294 119.537C114.6 119.537 114.038 120.097 114.038 120.788C114.038 121.479 114.6 122.039 115.294 122.039Z" fill="#007EFF" fill-opacity="0.27"/>
<path d="M216.25 140.249H125.062V144.297H216.25V140.249Z" fill="white"/>
<path d="M157.575 150.368H125.062V154.416H157.575V150.368Z" fill="white"/>
<path d="M189.833 160.487H125.062V164.535H189.833V160.487Z" fill="white"/>
</svg>
