<svg width="343" height="270" viewBox="0 0 343 270" fill="none" xmlns="http://www.w3.org/2000/svg">
<rect width="343" height="270" fill="white"/>
<path d="M91.4424 191.905H252.293V78.4424H91.4424V191.905Z" fill="white"/>
<path d="M255.735 195.347H88V75H255.735V195.347ZM91.4418 191.905H252.293V78.4418H91.4423L91.4418 191.905Z" fill="#007EFF" fill-opacity="0.27"/>
<path d="M172.213 139.952C158.179 139.952 146.762 128.452 146.762 114.317C146.762 100.182 158.179 88.6821 172.213 88.6821C186.246 88.6821 197.664 100.182 197.664 114.317C197.664 128.452 186.246 139.952 172.213 139.952ZM172.213 89.5167C158.639 89.5167 147.595 100.642 147.595 114.316C147.595 127.991 158.638 139.116 172.213 139.116C185.788 139.116 196.83 127.991 196.83 114.316C196.83 100.642 185.786 89.5171 172.213 89.5171V89.5167Z" fill="#090814"/>
<path d="M165.293 101.806V127.263L186.066 114.36L165.293 101.806Z" fill="#1F5DEE"/>
<path d="M221.463 159.416H122.27C122.067 159.416 121.872 159.335 121.728 159.192C121.584 159.048 121.503 158.853 121.503 158.649C121.503 158.446 121.584 158.251 121.728 158.107C121.872 157.963 122.067 157.882 122.27 157.882H221.463C221.667 157.882 221.862 157.963 222.005 158.107C222.149 158.251 222.23 158.446 222.23 158.649C222.23 158.853 222.149 159.048 222.005 159.192C221.862 159.335 221.667 159.416 221.463 159.416Z" fill="#1F5DEE"/>
<path d="M136.498 181.528C136.387 181.528 136.281 181.484 136.202 181.405C136.124 181.327 136.08 181.221 136.08 181.11V173.587C136.08 173.476 136.124 173.37 136.202 173.291C136.281 173.213 136.387 173.169 136.498 173.169C136.609 173.169 136.715 173.213 136.793 173.291C136.872 173.37 136.916 173.476 136.916 173.587V181.11C136.916 181.221 136.872 181.327 136.793 181.405C136.715 181.484 136.609 181.528 136.498 181.528Z" fill="#CCCCCC"/>
<path d="M170.561 181.528C170.45 181.528 170.343 181.484 170.265 181.405C170.187 181.327 170.143 181.221 170.143 181.11V173.587C170.143 173.476 170.187 173.37 170.265 173.291C170.343 173.213 170.45 173.169 170.561 173.169C170.671 173.169 170.778 173.213 170.856 173.291C170.934 173.37 170.978 173.476 170.978 173.587V181.11C170.978 181.221 170.934 181.327 170.856 181.405C170.778 181.484 170.671 181.528 170.561 181.528Z" fill="#090814"/>
<path d="M173.487 181.528C173.376 181.528 173.27 181.484 173.191 181.405C173.113 181.327 173.069 181.221 173.069 181.11V173.587C173.069 173.476 173.113 173.37 173.191 173.291C173.27 173.213 173.376 173.169 173.487 173.169C173.598 173.169 173.704 173.213 173.782 173.291C173.861 173.37 173.905 173.476 173.905 173.587V181.11C173.905 181.221 173.861 181.327 173.782 181.405C173.704 181.484 173.598 181.528 173.487 181.528Z" fill="#090814"/>
<path d="M142.634 181.664C142.464 181.663 142.296 181.618 142.149 181.532L137.178 178.179L137.15 178.162C137.013 178.075 136.9 177.955 136.822 177.813C136.745 177.67 136.705 177.51 136.707 177.348C136.707 177.177 136.751 177.01 136.836 176.862C136.921 176.715 137.044 176.592 137.192 176.508L142.124 173.179C142.271 173.088 142.439 173.038 142.612 173.034C142.785 173.03 142.955 173.073 143.106 173.157C143.257 173.241 143.382 173.363 143.47 173.512C143.557 173.661 143.603 173.831 143.603 174.003V180.69C143.603 180.948 143.5 181.194 143.319 181.376C143.137 181.558 142.891 181.661 142.634 181.662L142.634 181.664ZM142.592 180.824C142.61 180.829 142.63 180.831 142.648 180.828C142.667 180.826 142.685 180.819 142.701 180.808C142.722 180.797 142.739 180.78 142.75 180.76C142.762 180.739 142.768 180.716 142.768 180.693V174.005C142.768 173.982 142.762 173.959 142.75 173.938C142.738 173.918 142.721 173.901 142.701 173.889C142.681 173.878 142.658 173.872 142.634 173.872C142.611 173.872 142.588 173.878 142.567 173.889L137.635 177.218C137.552 177.267 137.544 177.321 137.544 177.35C137.543 177.373 137.549 177.397 137.561 177.417C137.573 177.437 137.59 177.454 137.611 177.466L137.636 177.481L142.592 180.824Z" fill="#CCCCCC"/>
<path d="M206.713 181.528C206.603 181.528 206.496 181.484 206.418 181.405C206.34 181.327 206.296 181.221 206.296 181.11V173.587C206.296 173.476 206.34 173.37 206.418 173.291C206.496 173.213 206.603 173.169 206.713 173.169C206.824 173.169 206.931 173.213 207.009 173.291C207.087 173.37 207.131 173.476 207.131 173.587V181.11C207.131 181.221 207.087 181.327 207.009 181.405C206.931 181.484 206.824 181.528 206.713 181.528Z" fill="#CCCCCC"/>
<path d="M200.571 181.662C200.403 181.662 200.239 181.617 200.094 181.533C199.946 181.448 199.823 181.326 199.738 181.178C199.653 181.031 199.608 180.863 199.609 180.693V174.006C199.609 173.835 199.654 173.668 199.739 173.521C199.824 173.373 199.947 173.251 200.094 173.166C200.242 173.081 200.409 173.036 200.579 173.036C200.749 173.036 200.916 173.081 201.064 173.166L206.045 176.526C206.187 176.611 206.305 176.732 206.385 176.877C206.466 177.021 206.507 177.184 206.505 177.35C206.506 177.518 206.463 177.683 206.38 177.828C206.298 177.974 206.179 178.096 206.034 178.181L201.088 181.519C200.931 181.612 200.753 181.662 200.571 181.664L200.571 181.662ZM200.446 180.693C200.446 180.716 200.452 180.739 200.464 180.76C200.475 180.78 200.492 180.797 200.512 180.809C200.533 180.82 200.556 180.827 200.579 180.827C200.603 180.827 200.626 180.82 200.646 180.809L205.597 177.468C205.619 177.456 205.637 177.439 205.649 177.418C205.662 177.397 205.669 177.373 205.67 177.349C205.67 177.325 205.665 177.302 205.653 177.282C205.641 177.261 205.624 177.244 205.603 177.233L200.621 173.873C200.603 173.867 200.584 173.866 200.565 173.868C200.546 173.871 200.528 173.878 200.512 173.889C200.491 173.9 200.474 173.917 200.463 173.937C200.451 173.958 200.445 173.981 200.445 174.004L200.446 180.693Z" fill="#CCCCCC"/>
<path d="M149.872 163.665C152.642 163.665 154.887 161.419 154.887 158.649C154.887 155.879 152.642 153.634 149.872 153.634C147.102 153.634 144.856 155.879 144.856 158.649C144.856 161.419 147.102 163.665 149.872 163.665Z" fill="#090814"/>
</svg>
