<svg width="20" height="20" viewBox="0 0 20 20" fill="none" xmlns="http://www.w3.org/2000/svg">
<path d="M15.2535 12.9055L16.612 8.82845C17.7995 5.26753 18.3932 3.48707 17.4527 2.54736C16.5122 1.60766 14.7326 2.20061 11.1709 3.38811L7.09458 4.74661C4.22083 5.70453 2.78396 6.18428 2.37625 6.88649C2.18578 7.21478 2.08546 7.58757 2.08546 7.96711C2.08546 8.34665 2.18578 8.71945 2.37625 9.04774C2.78396 9.75074 4.22083 10.2297 7.09458 11.1884C7.55691 11.342 7.78729 11.4188 7.98046 11.5478C8.16729 11.6729 8.328 11.8336 8.45308 12.0204C8.58212 12.2136 8.65891 12.444 8.8125 12.9055C9.77041 15.7793 10.2502 17.2169 10.9524 17.6254C11.2808 17.8161 11.6537 17.9165 12.0334 17.9165C12.4131 17.9165 12.786 17.8161 13.1144 17.6254C13.8166 17.2169 14.2948 15.7801 15.2535 12.9055Z" stroke="black" stroke-width="1.5" stroke-linecap="round" stroke-linejoin="round"/>
<path d="M13.3345 7.50487C13.4434 7.39348 13.5041 7.24376 13.5036 7.088C13.5032 6.93223 13.4415 6.7829 13.3319 6.67218C13.2223 6.56147 13.0737 6.49825 12.9179 6.49615C12.7622 6.49405 12.6118 6.55324 12.4993 6.66096L13.3345 7.50487ZM8.94075 11.8495L13.3345 7.50487L12.4993 6.66096L8.10555 11.0056L8.94075 11.8495Z" fill="black"/>
</svg>
